# Blender 4.2.1 LTS
# www.blender.org
mtllib cornell_box.mtl
o ceiling
v 2.810000 5.488000 -2.750000
v 2.810000 5.488000 2.842000
v -2.750000 5.488000 2.842000
v -2.750000 5.488000 -2.750000
v 2.746000 0.000000 2.842000
v -2.750000 0.000000 2.842000
v -2.750000 5.488000 2.842000
v 2.810000 5.488000 2.842000
v 2.778000 0.000000 -2.750000
v -2.750000 0.000000 -2.750000
v -2.750000 0.000000 2.842000
v 2.746000 0.000000 2.842000
v -1.450000 0.000000 -2.100000
v -1.930000 0.000000 -0.500000
v -0.350000 0.000000 -0.030000
v 0.150000 0.000000 -1.610000
v 1.480000 0.000000 -0.280000
v -0.100000 0.000000 0.210000
v 0.390000 0.000000 1.810000
v 1.970000 0.000000 1.310000
v -2.750000 0.000000 2.842000
v -2.750000 0.000000 -2.750000
v -2.750000 5.488000 -2.750000
v -2.750000 5.488000 2.842000
v 0.680000 5.384690 -0.480000
v 0.680000 5.384691 0.569999
v -0.620000 5.384691 0.569999
v -0.620000 5.384690 -0.480000
v 2.778000 0.000000 -2.750000
v 2.746000 0.000000 2.842000
v 2.810000 5.488000 2.842000
v 2.810000 5.488000 -2.750000
v -1.450000 1.650000 -2.100000
v -1.930000 1.650000 -0.500000
v -0.350000 1.650000 -0.030000
v 0.150000 1.650000 -1.610000
v 0.150000 0.000000 -1.610000
v 0.150000 1.650000 -1.610000
v -0.350000 1.650000 -0.030000
v -0.350000 0.000000 -0.030000
v -1.450000 0.000000 -2.100000
v -1.450000 1.650000 -2.100000
v 0.150000 1.650000 -1.610000
v 0.150000 0.000000 -1.610000
v -1.930000 0.000000 -0.500000
v -1.930000 1.650000 -0.500000
v -1.450000 1.650000 -2.100000
v -1.450000 0.000000 -2.100000
v -0.350000 0.000000 -0.030000
v -0.350000 1.650000 -0.030000
v -1.930000 1.650000 -0.500000
v -1.930000 0.000000 -0.500000
v 1.480000 3.300000 -0.280000
v -0.100000 3.300000 0.210000
v 0.390000 3.300000 1.809999
v 1.970000 3.300000 1.309999
v 1.480000 0.000000 -0.280000
v 1.480000 3.300000 -0.280000
v 1.970000 3.300000 1.309999
v 1.970000 0.000000 1.310000
v 1.970000 0.000000 1.310000
v 1.970000 3.300000 1.309999
v 0.390000 3.300000 1.809999
v 0.390000 0.000000 1.810000
v 0.390000 0.000000 1.810000
v 0.390000 3.300000 1.809999
v -0.100000 3.300000 0.210000
v -0.100000 0.000000 0.210000
v -0.100000 0.000000 0.210000
v -0.100000 3.300000 0.210000
v 1.480000 3.300000 -0.280000
v 1.480000 0.000000 -0.280000
vn -0.0000 -1.0000 -0.0000
vn -0.0000 -0.0000 -1.0000
vn -0.0000 1.0000 -0.0000
vn 1.0000 -0.0000 -0.0000
vn -1.0000 0.0058 -0.0000
vn 0.9534 -0.0000 0.3017
vn 0.2928 -0.0000 -0.9562
vn -0.9578 -0.0000 -0.2873
vn -0.2851 -0.0000 0.9585
vn 0.9556 -0.0000 -0.2945
vn 0.3017 -0.0000 0.9534
vn -0.9562 -0.0000 0.2928
vn -0.2962 -0.0000 -0.9551
vn -0.9999 0.0117 -0.0057
s 0
usemtl white
f 2//1 4//1 1//1
f 2//1 3//1 4//1
f 5//2 7//2 8//2
f 5//2 6//2 7//2
f 10//3 12//3 9//3
f 10//3 11//3 12//3
f 15//1 13//1 16//1
f 15//1 14//1 13//1
f 33//3 35//3 36//3
f 33//3 34//3 35//3
f 38//6 40//6 37//6
f 38//6 39//6 40//6
f 42//7 44//7 41//7
f 42//7 43//7 44//7
f 46//8 48//8 45//8
f 46//8 47//8 48//8
f 50//9 52//9 49//9
f 50//9 51//9 52//9
usemtl mirror
f 20//1 18//1 17//1
f 20//1 19//1 18//1
f 54//3 56//3 53//3
f 54//3 55//3 56//3
f 58//10 60//10 57//10
f 58//10 59//10 60//10
f 62//11 64//11 61//11
f 62//11 63//11 64//11
f 66//12 68//12 65//12
f 66//12 67//12 68//12
f 70//13 72//13 69//13
f 70//13 71//13 72//13
usemtl green
f 22//4 24//4 21//4
f 22//4 23//4 24//4
usemtl light
f 26//1 28//1 25//1
f 26//1 27//1 28//1
usemtl red
f 29//5 31//5 32//5
f 29//14 30//14 31//14
